<svg width="24" height="24" viewBox="0 0 24 24" fill="none" xmlns="http://www.w3.org/2000/svg">
<path d="M12.0007 22.0666C17.8917 22.0666 22.6673 17.42 22.6673 11.6882C22.6673 5.95637 17.8917 1.30981 12.0007 1.30981C6.10961 1.30981 1.33398 5.95637 1.33398 11.6882C1.33398 17.42 6.10961 22.0666 12.0007 22.0666Z" fill="#F3BA2F"/>
<path d="M9.41132 10.6529L12.0007 8.13355L14.5913 10.6542L16.098 9.18825L12.0007 5.20166L7.90465 9.18696L9.41132 10.6529ZM5.33398 11.6881L6.84065 10.2222L8.34732 11.6881L6.84065 13.1541L5.33398 11.6881ZM9.41132 12.7234L12.0007 15.2427L14.5913 12.7221L16.098 14.1874L12.0007 18.1746L7.90465 14.1893L7.90265 14.1874L9.41132 12.7234ZM15.654 11.6881L17.1607 10.2222L18.6673 11.6881L17.1607 13.1541L15.654 11.6881ZM13.5287 11.6868H13.53V11.6881L12.0007 13.1761L10.4733 11.6907L10.4707 11.6881L10.4733 11.6862L10.7407 11.4254L10.8707 11.299L12.0007 10.2001L13.5293 11.6875L13.5287 11.6868Z" fill="white"/>
</svg>
