<svg width="24" height="24" viewBox="0 0 24 24" fill="none" xmlns="http://www.w3.org/2000/svg">
<path d="M12.0007 22.6666C17.8917 22.6666 22.6673 17.891 22.6673 11.9999C22.6673 6.10888 17.8917 1.33325 12.0007 1.33325C6.10961 1.33325 1.33398 6.10888 1.33398 11.9999C1.33398 17.891 6.10961 22.6666 12.0007 22.6666Z" fill="#F7931A"/>
<path d="M16.7928 10.6799C17.0022 9.28259 15.9375 8.53125 14.4828 8.02992L14.9548 6.13659L13.8028 5.84992L13.3428 7.69325C13.0402 7.61725 12.7295 7.54659 12.4195 7.47592L12.8828 5.62059L11.7308 5.33325L11.2588 7.22592C11.0082 7.16859 10.7615 7.11259 10.5228 7.05259L10.5242 7.04658L8.93482 6.64992L8.62815 7.88059C8.62815 7.88059 9.48348 8.07659 9.46548 8.08859C9.93215 8.20525 10.0162 8.51392 10.0022 8.75925L9.46482 10.9159C9.49682 10.9239 9.53815 10.9359 9.58482 10.9539L9.46282 10.9239L8.70948 13.9453C8.65215 14.0866 8.50748 14.2993 8.18082 14.2186C8.19282 14.2353 7.34348 14.0099 7.34348 14.0099L6.77148 15.3286L8.27148 15.7026C8.55015 15.7726 8.82348 15.8459 9.09215 15.9146L8.61548 17.8293L9.76682 18.1159L10.2388 16.2226C10.5535 16.3073 10.8588 16.3859 11.1575 16.4606L10.6868 18.3459L11.8388 18.6326L12.3155 16.7219C14.2808 17.0939 15.7582 16.9439 16.3802 15.1666C16.8815 13.7359 16.3555 12.9099 15.3215 12.3719C16.0748 12.1986 16.6415 11.7033 16.7928 10.6799ZM14.1595 14.3719C13.8042 15.8033 11.3942 15.0293 10.6128 14.8353L11.2462 12.2986C12.0275 12.4939 14.5322 12.8799 14.1595 14.3719ZM14.5162 10.6593C14.1915 11.9613 12.1862 11.2993 11.5362 11.1373L12.1095 8.83725C12.7595 8.99925 14.8548 9.30125 14.5162 10.6593Z" fill="white"/>
</svg>
