<svg width="24" height="24" viewBox="0 0 24 24" fill="none" xmlns="http://www.w3.org/2000/svg">
<path d="M12.0007 22.0605C17.8917 22.0605 22.6673 17.4139 22.6673 11.6821C22.6673 5.95027 17.8917 1.30371 12.0007 1.30371C6.10961 1.30371 1.33398 5.95027 1.33398 11.6821C1.33398 17.4139 6.10961 22.0605 12.0007 22.0605Z" fill="#627EEA"/>
<path d="M12.332 3.89819V9.65171L17.33 11.8247L12.332 3.89819Z" fill="white" fill-opacity="0.602"/>
<path d="M12.3327 3.89819L7.33398 11.8247L12.3327 9.65171V3.89819Z" fill="white"/>
<path d="M12.332 15.5531V19.4626L17.3334 12.7302L12.332 15.5531Z" fill="white" fill-opacity="0.602"/>
<path d="M12.3327 19.4626V15.5525L7.33398 12.7302L12.3327 19.4626Z" fill="white"/>
<path d="M12.332 14.6483L17.33 11.8248L12.332 9.65308V14.6483Z" fill="white" fill-opacity="0.2"/>
<path d="M7.33398 11.8248L12.3327 14.6483V9.65308L7.33398 11.8248Z" fill="white" fill-opacity="0.602"/>
</svg>
