<svg width="20" height="20" viewBox="0 0 20 20" fill="none" xmlns="http://www.w3.org/2000/svg">
<path d="M10 19.4173C15.5228 19.4173 20 15.0758 20 9.72035C20 4.36486 15.5228 0.0233765 10 0.0233765C4.47715 0.0233765 0 4.36486 0 9.72035C0 15.0758 4.47715 19.4173 10 19.4173Z" fill="#6F41D8"/>
<path d="M13.1825 7.71606C12.9519 7.58576 12.6525 7.58576 12.3988 7.71606L10.5994 8.71848L9.37754 9.37182L7.57816 10.3736C7.34754 10.5045 7.04816 10.5045 6.79441 10.3736L5.36441 9.58939C5.13379 9.45909 4.97254 9.2197 4.97254 8.95788V7.41121C4.97254 7.15 5.11066 6.9106 5.36441 6.7797L6.77066 6.01727C7.00191 5.88636 7.30191 5.88636 7.55566 6.01727L8.96191 6.7797C9.19316 6.9106 9.35441 7.15 9.35441 7.41121V8.41363L10.5763 7.73788V6.73606C10.5776 6.60594 10.5417 6.47801 10.4725 6.36651C10.4033 6.25502 10.3036 6.16433 10.1844 6.10454L7.57816 4.66697C7.34754 4.53606 7.04816 4.53606 6.79441 4.66697L4.14191 6.10454C4.02272 6.16433 3.92298 6.25502 3.85379 6.36651C3.7846 6.47801 3.74869 6.60594 3.75004 6.73606V9.63303C3.75004 9.89485 3.88816 10.1342 4.14191 10.2652L6.79441 11.7027C7.02504 11.833 7.32504 11.833 7.57816 11.7027L9.37754 10.7221L10.5994 10.047L12.3988 9.06697C12.6294 8.93606 12.9288 8.93606 13.1825 9.06697L14.5894 9.82939C14.8207 9.9597 14.9813 10.1991 14.9813 10.4609V12.0076C14.9813 12.2688 14.8438 12.5082 14.5894 12.6391L13.1832 13.4233C12.9519 13.5542 12.6519 13.5542 12.3988 13.4233L10.9919 12.6609C10.7607 12.53 10.5994 12.2906 10.5994 12.0294V11.027L9.37754 11.7027V12.7045C9.37754 12.9658 9.51566 13.2058 9.76941 13.3361L12.4219 14.7736C12.6525 14.9045 12.9519 14.9045 13.2057 14.7736L15.8582 13.3361C16.0888 13.2058 16.25 12.9664 16.25 12.7045V9.80757C16.2514 9.67745 16.2155 9.54953 16.1463 9.43803C16.0771 9.32653 15.9774 9.23584 15.8582 9.17606L13.1832 7.71606H13.1825Z" fill="white"/>
</svg>
