<svg width="24" height="24" viewBox="0 0 24 24" fill="none"
  xmlns="http://www.w3.org/2000/svg" id="usdt">
  <path d="M12 24C18.6274 24 24 18.6274 24 12C24 5.37258 18.6274 0 12 0C5.37258 0 0 5.37258 0 12C0 18.6274 5.37258 24 12 24Z" fill="#26A17B"/>
  <path fill-rule="evenodd" clip-rule="evenodd" d="M13.4415 13.0368V13.0353C13.359 13.0413 12.9338 13.0668 11.985 13.0668C11.2275 13.0668 10.6943 13.0443 10.5068 13.0353V13.0375C7.59076 12.9093 5.41426 12.4015 5.41426 11.794C5.41426 11.1873 7.59076 10.6795 10.5068 10.549V12.532C10.6973 12.5455 11.2433 12.5778 11.9978 12.5778C12.903 12.5778 13.3568 12.5403 13.4415 12.5328V10.5505C16.3515 10.6803 18.5228 11.188 18.5228 11.794C18.5228 12.4015 16.3515 12.9078 13.4415 13.0368ZM13.4415 10.3443V8.56977H17.502V5.86377H6.44626V8.56977H10.5068V10.3435C7.20676 10.495 4.72501 11.149 4.72501 11.932C4.72501 12.715 7.20676 13.3683 10.5068 13.5205V19.207H13.4415V13.519C16.7363 13.3675 19.212 12.7143 19.212 11.932C19.212 11.1498 16.7363 10.4965 13.4415 10.3443Z" fill="white"/>
</svg>
