<svg width="29" height="28" viewBox="0 0 29 28" fill="none" xmlns="http://www.w3.org/2000/svg">
<path d="M24.8166 20.0021C24.4285 20.8988 23.969 21.7243 23.4367 22.4832C22.7111 23.5177 22.117 24.2338 21.6591 24.6315C20.9493 25.2842 20.1889 25.6185 19.3745 25.6375C18.7899 25.6375 18.0849 25.4712 17.2642 25.1337C16.4408 24.7978 15.6842 24.6315 14.9923 24.6315C14.2667 24.6315 13.4885 24.7978 12.6561 25.1337C11.8224 25.4712 11.1508 25.647 10.6374 25.6645C9.85645 25.6977 9.07808 25.3539 8.30113 24.6315C7.80524 24.199 7.18498 23.4575 6.44194 22.4071C5.64472 21.2854 4.98929 19.9847 4.47581 18.5018C3.9259 16.9 3.65023 15.349 3.65023 13.8474C3.65023 12.1273 4.02191 10.6437 4.76637 9.40053C5.35146 8.40194 6.12983 7.61422 7.10402 7.03594C8.07822 6.45767 9.13083 6.16299 10.2644 6.14413C10.8847 6.14413 11.6981 6.33599 12.7088 6.71306C13.7168 7.09139 14.364 7.28325 14.6477 7.28325C14.8599 7.28325 15.5788 7.05891 16.7976 6.61166C17.9502 6.19689 18.923 6.02515 19.7199 6.0928C21.8793 6.26708 23.5016 7.11833 24.5806 8.65194C22.6493 9.82212 21.6939 11.4611 21.713 13.5636C21.7304 15.2013 22.3245 16.5642 23.4921 17.6463C24.0213 18.1485 24.6122 18.5366 25.2697 18.8123C25.1271 19.2258 24.9766 19.6219 24.8166 20.0021ZM19.8641 0.51348C19.8641 1.79711 19.3951 2.99562 18.4604 4.10496C17.3323 5.42374 15.9679 6.1858 14.4883 6.06555C14.4695 5.91155 14.4586 5.74948 14.4586 5.57917C14.4586 4.34689 14.995 3.0281 15.9476 1.94982C16.4233 1.40386 17.0281 0.94991 17.7617 0.587783C18.4936 0.231059 19.186 0.0337827 19.8371 0C19.8561 0.171601 19.8641 0.343212 19.8641 0.513463V0.51348Z" fill="black"/>
</svg>
