<svg width="28" height="28" viewBox="0 0 28 28" fill="none" xmlns="http://www.w3.org/2000/svg">
<path d="M27.9959 14.0005C27.9959 21.0714 22.7561 26.917 15.9491 27.8656C15.3126 27.9539 14.6615 28 14.0005 28C13.2375 28 12.4883 27.9392 11.7586 27.8215C5.09389 26.7483 0.00412178 20.9684 0.00412178 14.0005C0.00412178 6.26844 6.27071 0 13.9995 0C21.7283 0 27.9959 6.26844 27.9959 14.0005Z" fill="#1877F2"/>
<path d="M15.9491 11.2407V14.2905H19.7208L19.1236 18.3989H15.9491V27.8643C15.3126 27.9526 14.6615 27.9987 14.0005 27.9987C13.2375 27.9987 12.4882 27.9379 11.7586 27.8202V18.3989H8.28012V14.2905H11.7586V10.5589C11.7586 8.2438 13.6347 6.36621 15.9501 6.36621V6.36817C15.9569 6.36817 15.9628 6.36621 15.9697 6.36621H19.7218V9.91931H17.2701C16.5414 9.91931 15.9501 10.5108 15.9501 11.2397L15.9491 11.2407Z" fill="white"/>
</svg>
