<svg width="28" height="28" viewBox="0 0 28 28" fill="none" xmlns="http://www.w3.org/2000/svg">
<path d="M26.2512 14.272C26.2512 13.2648 26.1678 12.5298 25.9873 11.7676H14.2512V16.3136H21.1401C21.0012 17.4434 20.2512 19.1448 18.5845 20.2881L18.5612 20.4403L22.2719 23.2574L22.529 23.2826C24.8901 21.1456 26.2512 18.0014 26.2512 14.272Z" fill="#4285F4"/>
<path d="M14.2505 26.2502C17.6254 26.2502 20.4587 25.1612 22.5282 23.2829L18.5838 20.2884C17.5282 21.0098 16.1115 21.5134 14.2505 21.5134C10.9449 21.5134 8.13943 19.3765 7.13933 16.4229L6.99274 16.4351L3.13428 19.3615L3.08382 19.4989C5.13934 23.5006 9.36156 26.2502 14.2505 26.2502Z" fill="#34A853"/>
<path d="M7.14005 16.4227C6.87617 15.6605 6.72345 14.8438 6.72345 13.9999C6.72345 13.156 6.87617 12.3394 7.12617 11.5771L7.11918 11.4148L3.21234 8.44141L3.08452 8.50099C2.23734 10.1616 1.75122 12.0263 1.75122 13.9999C1.75122 15.9735 2.23734 17.8382 3.08452 19.4988L7.14005 16.4227Z" fill="#FBBC05"/>
<path d="M14.2505 6.48663C16.5977 6.48663 18.181 7.48024 19.0838 8.31058L22.6116 4.935C20.445 2.96139 17.6255 1.75 14.2505 1.75C9.36159 1.75 5.13935 4.49942 3.08382 8.50106L7.12547 11.5772C8.13946 8.62361 10.945 6.48663 14.2505 6.48663Z" fill="#EB4335"/>
</svg>
