<svg width="116" height="41" viewBox="0 0 116 41" fill="none" xmlns="http://www.w3.org/2000/svg">
<g clip-path="url(#clip0_917_12573)">
<path d="M56.0092 19.5485L53.4739 15.9031L50.9837 19.5485H48.1934L52.0788 14.2079L48.3884 9.04736H51.1487L53.5639 12.4527L55.9342 9.04736H58.5595L54.8991 14.1179L58.8145 19.5485H56.0092Z" fill="white"/>
<path d="M59.3086 15.5099C59.3086 13.075 61.178 11.3325 63.6937 11.3325C65.09 11.3325 66.2555 11.8403 67.0171 12.7634L65.817 13.8712C65.2746 13.2481 64.5938 12.925 63.786 12.925C62.2743 12.925 61.2011 13.9866 61.2011 15.5099C61.2011 17.0331 62.2743 18.0948 63.786 18.0948C64.5938 18.0948 65.2746 17.7717 65.817 17.137L67.0171 18.2448C66.2555 19.1795 65.09 19.6872 63.6821 19.6872C61.178 19.6872 59.3086 17.9448 59.3086 15.5099Z" fill="white"/>
<path d="M68.2754 11.4697H70.1448V18.0243H74.1953V19.5475H68.2754V11.4697Z" fill="white"/>
<path d="M75.0723 15.9943V11.4707H76.9417V15.925C76.9417 17.4598 77.611 18.0945 78.7419 18.0945C79.8728 18.0945 80.5421 17.4598 80.5421 15.925V11.4707H82.3884V15.9943C82.3884 18.3714 81.0267 19.687 78.7303 19.687C76.4339 19.687 75.0723 18.3714 75.0723 15.9943Z" fill="white"/>
<path d="M83.5996 18.7525L84.2343 17.3447C84.9151 17.8409 85.9306 18.1871 86.9 18.1871C88.0078 18.1871 88.4578 17.8178 88.4578 17.3216C88.4578 15.8099 83.7612 16.8485 83.7612 13.8482C83.7612 12.4749 84.869 11.3325 87.1654 11.3325C88.1809 11.3325 89.2194 11.5749 89.9695 12.048L89.3925 13.4674C88.6424 13.0404 87.8693 12.8327 87.1538 12.8327C86.046 12.8327 85.6191 13.2481 85.6191 13.7559C85.6191 15.2445 90.3157 14.2174 90.3157 17.1831C90.3157 18.5333 89.1964 19.6872 86.8884 19.6872C85.6075 19.6872 84.3151 19.3064 83.5996 18.7525Z" fill="white"/>
<path d="M91.5977 11.4697H93.4671V19.5475H91.5977V11.4697Z" fill="white"/>
<path d="M103.103 11.4697L99.6067 19.5475H97.7604L94.2754 11.4697H96.2948L98.7528 17.2396L101.245 11.4697H103.103Z" fill="white"/>
<path d="M110.026 18.0483V19.5485H103.771V11.4707H109.876V12.9709H105.629V14.7249H109.38V16.1789H105.629V18.0483H110.026Z" fill="white"/>
<path d="M55.3619 31.896V33.3961H49.1074V25.3184H55.2119V26.8185H50.9653V28.5725H54.7157V30.0265H50.9653V31.896H55.3619Z" fill="white"/>
<path d="M61.8579 33.3961L59.9077 30.592L57.9921 33.3961H55.8457L58.8345 29.288L55.9957 25.3184H58.119L59.9769 27.9379L61.8002 25.3184H63.8196L61.0039 29.2188L64.0158 33.3961H61.8579Z" fill="white"/>
<path d="M64.2109 29.3571C64.2109 26.9222 66.0804 25.1797 68.596 25.1797C69.9923 25.1797 71.1578 25.6874 71.9194 26.6106L70.7193 27.7184C70.177 27.0953 69.4961 26.7722 68.6883 26.7722C67.1766 26.7722 66.1034 27.8338 66.1034 29.3571C66.1034 30.8803 67.1766 31.9419 68.6883 31.9419C69.4961 31.9419 70.177 31.6188 70.7193 30.9841L71.9194 32.092C71.1578 33.0267 69.9923 33.5344 68.5845 33.5344C66.0804 33.5344 64.2109 31.7919 64.2109 29.3571Z" fill="white"/>
<path d="M80.5862 25.3174V33.3952H78.7168V30.0833H75.0472V33.3952H73.1777V25.3174H75.0472V28.5023H78.7168V25.3174H80.5862Z" fill="white"/>
<path d="M87.8209 31.6652H84.0705L83.355 33.3961H81.4395L85.0398 25.3184H86.8862L90.4981 33.3961H88.5364L87.8209 31.6652ZM87.2324 30.2458L85.9515 27.1532L84.6706 30.2458H87.2324Z" fill="white"/>
<path d="M98.7503 25.3174V33.3952H97.2155L93.1881 28.4908V33.3952H91.3418V25.3174H92.8881L96.9039 30.2217V25.3174H98.7503Z" fill="white"/>
<path d="M106.124 29.2301H107.832V32.5074C106.944 33.1767 105.72 33.5344 104.566 33.5344C102.028 33.5344 100.158 31.7919 100.158 29.3571C100.158 26.9222 102.028 25.1797 104.601 25.1797C106.02 25.1797 107.197 25.6644 107.982 26.576L106.782 27.6838C106.193 27.0607 105.513 26.7722 104.693 26.7722C103.124 26.7722 102.051 27.8223 102.051 29.3571C102.051 30.8918 103.124 31.9419 104.67 31.9419C105.178 31.9419 105.651 31.8496 106.124 31.5958V29.2301Z" fill="white"/>
<path d="M115.817 31.896V33.3961H109.562V25.3184H115.667V26.8185H111.42V28.5725H115.171V30.0265H111.42V31.896H115.817Z" fill="white"/>
<path d="M40 0.5H0V40.5H40V0.5Z" fill="white"/>
<path d="M19.9772 27.2974C19.9772 27.3816 19.8999 27.4232 19.7464 27.4232L18.0559 27.4336C17.9716 27.4336 17.9266 27.4301 17.9197 27.4232C17.8147 27.3886 17.2112 26.5162 16.108 24.8083C15.0048 23.1004 14.4359 22.243 14.4013 22.2349C14.2755 22.3261 13.6558 23.2262 12.5422 24.9341C11.4713 26.5935 10.8828 27.4232 10.7778 27.4232H9.03415C8.87259 27.4232 8.79297 27.3666 8.79297 27.2547V25.743C8.79297 25.6103 9.45073 24.6698 10.7674 22.9239C12.0841 21.1768 12.7418 20.234 12.7418 20.0932C12.7418 19.9397 12.0875 18.9796 10.7778 17.2163C9.46804 15.4519 8.81374 14.5172 8.81374 14.4122V12.7955C8.81374 12.6974 8.90837 12.6489 9.09762 12.6489C9.28687 12.6489 9.58805 12.6558 9.97925 12.6697C10.3716 12.6835 10.6647 12.6905 10.8609 12.6905C10.8955 12.6905 11.0247 12.852 11.2498 13.174C11.9075 14.2102 12.9022 15.7577 14.2316 17.8152C14.2662 17.8637 14.3262 17.9168 14.4105 17.9722C14.5086 17.9237 15.1144 17.0236 16.2268 15.2731C17.3254 13.5513 17.9243 12.6893 18.0224 12.6893H19.6818C19.8641 12.6893 19.9553 12.7389 19.9553 12.8359V14.4526C19.9553 14.628 19.3022 15.5835 17.997 17.319C16.6907 19.0558 16.0387 19.9685 16.0387 20.0597C16.0387 20.1716 16.6953 21.1225 18.0074 22.9112C19.3206 24.6998 19.9761 25.6576 19.9761 25.7834V27.2951L19.9772 27.2974Z" fill="black"/>
<path d="M33.1974 24.9977C33.1974 25.082 33.1304 25.2008 32.9977 25.3543C31.6326 26.9364 29.942 27.728 27.926 27.728C25.9101 27.728 24.1456 26.9618 22.8855 25.4282C21.7096 23.9995 21.1211 22.2144 21.1211 20.0726C21.1211 17.9308 21.72 16.1387 22.9167 14.6962C24.1906 13.1419 25.8743 12.3652 27.9676 12.3652C30.0609 12.3652 31.7307 13.083 32.8927 14.5185C33.0047 14.6651 33.0612 14.7886 33.0612 14.8855C33.0612 15.0044 32.8754 15.3563 32.505 15.9414C32.1334 16.5264 31.9095 16.8184 31.8334 16.8184C31.7422 16.8184 31.5287 16.6465 31.1929 16.3037C30.7798 15.8837 30.3909 15.5686 30.0274 15.3586C29.425 15.0159 28.7604 14.844 28.0322 14.844C26.6463 14.844 25.5673 15.3725 24.7976 16.4295C24.111 17.3746 23.7683 18.5644 23.7683 19.9999C23.7683 21.4354 24.1076 22.6356 24.7873 23.6014C25.5569 24.6862 26.6324 25.2297 28.0114 25.2297C28.6969 25.2297 29.3593 25.0577 29.9963 24.715C30.4163 24.4911 30.8433 24.1726 31.2772 23.7595C31.6407 23.4168 31.8403 23.2448 31.8761 23.2448C31.9176 23.2448 32.1496 23.523 32.5696 24.0803C32.9897 24.6377 33.1997 24.9435 33.1997 24.9989L33.1974 24.9977Z" fill="black"/>
</g>
<defs>
<clipPath id="clip0_917_12573">
<rect width="115.817" height="40" fill="white" transform="translate(0 0.5)"/>
</clipPath>
</defs>
</svg>
