<svg width="16" height="17" viewBox="0 0 16 17" fill="none"
  xmlns="http://www.w3.org/2000/svg" id="id">
  <g clip-path="url(#clip0_22_5014)">
    <path d="M14.4 13.7748L13.9 12.9998C13.8 12.8498 13.75 12.6998 13.75 12.5248V7.3248C13.75 5.8498 13.125 4.4748 11.975 3.4498C11.05 2.6248 9.84999 2.0998 8.57499 1.9998V1.4998C8.57499 1.1998 8.32499 0.924805 7.99999 0.924805C7.69999 0.924805 7.42499 1.1748 7.42499 1.4998V1.9748C7.37499 1.9748 7.32499 1.9748 7.27499 1.9998C4.37499 2.3248 2.19999 4.6498 2.19999 7.4248V12.5248C2.17499 12.7748 2.12499 12.8998 2.07499 12.9748L1.59999 13.7748C1.44999 14.0248 1.44999 14.3248 1.59999 14.5748C1.74999 14.7998 1.99999 14.9498 2.27499 14.9498H7.44999V15.4998C7.44999 15.7998 7.69999 16.0748 8.02499 16.0748C8.32499 16.0748 8.59999 15.8248 8.59999 15.4998V14.9498H13.75C14.025 14.9498 14.275 14.7998 14.425 14.5748C14.575 14.3248 14.575 14.0248 14.4 13.7748ZM2.87499 13.8248L3.04999 13.5248C3.19999 13.2748 3.27499 12.9748 3.32499 12.6248V7.4248C3.32499 5.2248 5.07499 3.3748 7.39999 3.1248C8.82499 2.9748 10.225 3.3998 11.25 4.2998C12.15 5.0998 12.65 6.1748 12.65 7.3248V12.5248C12.65 12.8998 12.75 13.2498 12.975 13.5998L13.125 13.8248H2.87499Z" fill="currentColor"/>
  </g>
  <defs>
    <clipPath id="clip0_22_5014">
      <rect width="16" height="16" fill="white" transform="translate(0 0.5)"/>
    </clipPath>
  </defs>
</svg>
